HIERARCHY
ROOT hip
{
  OFFSET 0 0 0
  CHANNELS 6 Xposition Yposition Zposition Zrotation Xrotation Yrotation
  JOINT abdomen
  {
    OFFSET 0 3.00213 0.00105793
    CHANNELS 3 Zrotation Xrotation Yrotation
    JOINT chest
    {
      OFFSET 0 10.6995 -0.00105746
      CHANNELS 3 Zrotation Xrotation Yrotation
      JOINT neck
      {
        OFFSET 0 12.0281 0.000564911
        CHANNELS 3 Zrotation Xrotation Yrotation
        JOINT head
        {
          OFFSET 0 2.32428 0.00185087
          CHANNELS 3 Zrotation Xrotation Yrotation
          End Site
          {
            OFFSET 0 8.33755 -1.1198e-005
          }
        }
      }
      JOINT lCollar
      {
        OFFSET 4.14228 8.71331 -1.74819
        CHANNELS 3 Zrotation Xrotation Yrotation
        JOINT lShldr
        {
          OFFSET 3.19849 0 0
          CHANNELS 3 Zrotation Xrotation Yrotation
          JOINT lForeArm
          {
            OFFSET 11.2674 0.131798 0.138381
            CHANNELS 3 Zrotation Xrotation Yrotation
            JOINT lHand
            {
              OFFSET 10.4338 -0.0789642 2.11788
              CHANNELS 3 Zrotation Xrotation Yrotation
              End Site
              {
                OFFSET 5.53607 0.395142 1.59885
              }
            }
          }
        }
      }
      JOINT rCollar
      {
        OFFSET -4.14228 8.71331 -1.74819
        CHANNELS 3 Zrotation Xrotation Yrotation
        JOINT rShldr
        {
          OFFSET -3.19849 0 0
          CHANNELS 3 Zrotation Xrotation Yrotation
          JOINT rForeArm
          {
            OFFSET -11.2674 0.131798 0.138381
            CHANNELS 3 Zrotation Xrotation Yrotation
            JOINT rHand
            {
              OFFSET -10.4338 -0.0789642 2.11792
              CHANNELS 3 Zrotation Xrotation Yrotation
              End Site
              {
                OFFSET -5.53607 0.395142 1.59887
              }
            }
          }
        }
      }
    }
  }
  JOINT lThigh
  {
    OFFSET 4.31922 0 0
    CHANNELS 3 Zrotation Xrotation Yrotation
    JOINT lShin
    {
      OFFSET -1.08433 -20.0141 1.65244
      CHANNELS 3 Zrotation Xrotation Yrotation
      JOINT lFoot
      {
        OFFSET -1.03648 -19.1308 -1.65247
        CHANNELS 3 Zrotation Xrotation Yrotation
        JOINT lToe
        {
          OFFSET 0 -3.25315 5.51378
          CHANNELS 3 Zrotation Xrotation Yrotation
          End Site
          {
            OFFSET 0 0 2.70295
          }
        }
      }
    }
  }
  JOINT rThigh
  {
    OFFSET -4.31922 0 0
    CHANNELS 3 Zrotation Xrotation Yrotation
    JOINT rShin
    {
      OFFSET 1.08434 -20.0141 1.6524
      CHANNELS 3 Zrotation Xrotation Yrotation
      JOINT rFoot
      {
        OFFSET 1.03648 -19.1308 -1.65242
        CHANNELS 3 Zrotation Xrotation Yrotation
        JOINT rToe
        {
          OFFSET 0 -3.25315 5.51378
          CHANNELS 3 Zrotation Xrotation Yrotation
          End Site
          {
            OFFSET 0 0 2.70295
          }
        }
      }
    }
  }
}
MOTION
Frames:	13
Frame Time:	0.0333333
0 42.3981 0 5.64609e-021 4.54315e-027 9.22076e-005 2.11495e-037 -6.42308e-043 -2.60551e-011 2.12011e-037 -6.42308e-043 -6.51378e-012 -1.70755e-005 2.748e-011 5.88469e-006 1.70755e-005 -2.92338e-011 -1.1322e-006 2.12011e-037 -6.42308e-043 -1.21329e-020 0.0573189 1.35015 0.64658 -0.07257 -1.34941 -0.648202 -8.85594e-011 -6.51378e-012 -3.18056e-015 2.12011e-037 -6.42308e-043 -1.21329e-020 -0.0573189 1.35015 -0.64658 0.0725699 -1.34941 0.648017 4.36025e-007 1.04221e-010 2.66804e-008 2.94655e-040 -6.42308e-043 -9.22076e-005 2.94655e-040 0 -0 2.94655e-040 0 -0 2.94655e-040 0 -0 2.94655e-040 -6.42308e-043 -9.22076e-005 8.71121e-038 0 -2.13443e-007 8.71121e-038 -6.42308e-043 4.7394e-023 4.23552e-038 -6.42308e-043 -3.20165e-006 
0 42.3981 0 5.64609e-021 4.54315e-027 9.22076e-005 2.11495e-037 -6.42308e-043 -2.60551e-011 2.12011e-037 -6.42308e-043 -6.51378e-012 -1.70755e-005 2.748e-011 5.88469e-006 1.70755e-005 -2.92338e-011 -1.1322e-006 2.12011e-037 -6.42308e-043 -1.21329e-020 0.0573189 1.35015 0.64658 -0.07257 -1.34941 -0.648202 -8.85594e-011 -6.51378e-012 -3.18056e-015 2.12011e-037 -6.42308e-043 -1.21329e-020 -0.0573189 1.35015 -0.64658 0.0725699 -1.34941 0.648017 4.36025e-007 1.04221e-010 2.66804e-008 2.94655e-040 -6.42308e-043 -9.22076e-005 2.94655e-040 0 -0 2.94655e-040 0 -0 2.94655e-040 0 -0 2.94655e-040 -6.42308e-043 -9.22076e-005 8.71121e-038 0 -2.13443e-007 8.71121e-038 -6.42308e-043 4.7394e-023 4.23552e-038 -6.42308e-043 -3.20165e-006 
0 42.3981 0 5.64609e-021 4.54315e-027 9.22076e-005 2.11495e-037 -6.42308e-043 -2.60551e-011 2.12011e-037 -6.42308e-043 -6.51378e-012 -1.70755e-005 2.748e-011 5.88469e-006 1.70755e-005 -2.92338e-011 -1.1322e-006 2.12011e-037 -6.42308e-043 -1.21329e-020 0.0573189 1.35015 0.64658 -0.07257 -1.34941 -0.648202 -8.85594e-011 -6.51378e-012 -3.18056e-015 2.12011e-037 -6.42308e-043 -1.21329e-020 -0.0573189 1.35015 -0.64658 0.0725699 -1.34941 0.648017 4.36025e-007 1.04221e-010 2.66804e-008 2.94655e-040 -6.42308e-043 -9.22076e-005 2.94655e-040 0 -0 2.94655e-040 0 -0 2.94655e-040 0 -0 2.94655e-040 -6.42308e-043 -9.22076e-005 8.71121e-038 0 -2.13443e-007 8.71121e-038 -6.42308e-043 4.7394e-023 4.23552e-038 -6.42308e-043 -3.20165e-006 
0 42.3981 0 5.64609e-021 4.54315e-027 9.22076e-005 2.11495e-037 -6.42308e-043 -2.60551e-011 2.12011e-037 -6.42308e-043 -6.51378e-012 -1.70755e-005 2.748e-011 5.88469e-006 1.70755e-005 -2.92338e-011 -1.1322e-006 2.12011e-037 -6.42308e-043 -1.21329e-020 0.0573189 1.35015 0.64658 -0.07257 -1.34941 -0.648202 -8.85594e-011 -6.51378e-012 -3.18056e-015 2.12011e-037 -6.42308e-043 -1.21329e-020 -0.0573189 1.35015 -0.64658 0.0725699 -1.34941 0.648017 4.36025e-007 1.04221e-010 2.66804e-008 2.94655e-040 -6.42308e-043 -9.22076e-005 2.94655e-040 0 -0 2.94655e-040 0 -0 2.94655e-040 0 -0 2.94655e-040 -6.42308e-043 -9.22076e-005 8.71121e-038 0 -2.13443e-007 8.71121e-038 -6.42308e-043 4.7394e-023 4.23552e-038 -6.42308e-043 -3.20165e-006 
0 42.3981 0 5.64609e-021 4.54315e-027 9.22076e-005 2.11495e-037 -6.42308e-043 -2.60551e-011 2.12011e-037 -6.42308e-043 -6.51378e-012 -1.70755e-005 2.748e-011 5.88469e-006 1.70755e-005 -2.92338e-011 -1.1322e-006 2.12011e-037 -6.42308e-043 -1.21329e-020 0.0573189 1.35015 0.64658 -0.07257 -1.34941 -0.648202 -8.85594e-011 -6.51378e-012 -3.18056e-015 2.12011e-037 -6.42308e-043 -1.21329e-020 -0.0573189 1.35015 -0.64658 0.0725699 -1.34941 0.648017 4.36025e-007 1.04221e-010 2.66804e-008 2.94655e-040 -6.42308e-043 -9.22076e-005 2.94655e-040 0 -0 2.94655e-040 0 -0 2.94655e-040 0 -0 2.94655e-040 -6.42308e-043 -9.22076e-005 8.71121e-038 0 -2.13443e-007 8.71121e-038 -6.42308e-043 4.7394e-023 4.23552e-038 -6.42308e-043 -3.20165e-006 
-0.0405296 42.4724 0.423189 3.0505 0.948473 -5.52773 -3.49969 -3.27866 -3.92637 1.15123 5.31689 -6.66624 -1.65685e-005 -1.06722e-006 4.55068e-006 -5.49014 10.7246 14.3095 -20.5579 -5.10575 13.3491 -62.7701 18.0786 1.7859 -1.14988 -1.09259 -11.6351 -10.3808 -15.0938 -8.98064 14.8461 -1.14799 -4.32235 65.4535 17.1923 6.62477 0.624489 -1.24515 6.21453 7.81901 -10.8152 -5.25402 -3.48254 10.6554 10.3741 0.0431717 -9.50033 0.519492 -4.32357e-015 -3.62854e-006 -6.00309e-008 -1.94378 -1.50115 6.21742 -3.87628 7.94194 -14.3395 -0.00353243 -2.7345 -0.148266 2.13443e-007 -1.28066e-006 1.4941e-006 3.75533 -5.73497 -16.2995 
-0.0405296 42.4724 0.423189 3.05049 0.948473 -5.52773 -3.50795 -3.35911 -3.92444 1.09142 4.80322 -6.65335 -1.5608e-005 -6.4033e-006 7.107e-006 -5.67224 11.3711 14.4642 -20.4621 -5.08311 13.3576 -62.9995 17.9605 2.41278 -1.1816 -1.08163 -11.9674 -10.3847 -15.0927 -9.02023 14.7484 -1.1406 -4.3243 65.7087 17.3021 6.03062 0.664276 -1.23545 6.62004 7.82528 -10.815 -5.19176 -3.48254 10.6554 10.3741 0.0431719 -9.50033 0.51949 -3.20165e-007 -1.70755e-006 6.2699e-007 -1.94378 -1.50115 6.21741 -3.87627 7.94195 -14.3395 -0.00353977 -2.73454 -0.148265 2.13443e-007 4.26887e-007 -5.06928e-007 3.75533 -5.73494 -16.2995 
-0.0405296 42.4724 0.423189 3.05049 0.948473 -5.52773 -3.51728 -3.44988 -3.92228 1.02413 4.22353 -6.63945 -2.19847e-005 8.32429e-006 1.13909e-005 -5.85853 12.0936 14.6298 -20.356 -5.05799 13.367 -63.2521 17.8245 3.11886 -1.21731 -1.06904 -12.3424 -10.3891 -15.0914 -9.0649 14.6399 -1.13241 -4.32644 65.9965 17.4237 5.3593 0.70907 -1.22419 7.07754 7.83237 -10.8148 -5.1215 -3.48254 10.6554 10.3741 0.0431721 -9.50033 0.519491 -7.47052e-007 2.13443e-007 -2.46794e-007 -1.94378 -1.50115 6.21742 -3.87627 7.94195 -14.3395 -0.0035428 -2.7345 -0.148264 6.4033e-007 8.53774e-007 -2.98821e-006 3.75534 -5.73498 -16.2995 
-0.0405296 42.4724 0.423189 3.05049 0.948474 -5.52772 -3.52722 -3.54656 -3.91999 0.952656 3.60615 -6.62541 -1.6862e-005 -3.52182e-006 8.12335e-006 -6.04748 12.859 14.8036 -20.2424 -5.03111 13.3769 -63.5168 17.6766 3.86934 -1.25525 -1.05537 -12.7419 -10.3938 -15.0901 -9.1125 14.524 -1.12363 -4.32873 66.3056 17.5507 4.64331 0.75668 -1.2118 7.56484 7.83994 -10.8145 -5.04664 -3.48253 10.6554 10.3741 0.0431704 -9.50034 0.519489 -1.06722e-007 -2.13443e-007 -2.26784e-007 -1.94378 -1.50115 6.21742 -3.87627 7.94195 -14.3395 -0.00352949 -2.7345 -0.148258 -1.06722e-006 -8.53774e-007 -6.67011e-007 3.75533 -5.73497 -16.2995 
-0.0405296 42.4724 0.423189 3.0505 0.948473 -5.52773 -3.5373 -3.64471 -3.91768 0.880291 2.9793 -6.61195 -2.2705e-005 4.69576e-006 1.07039e-005 -6.23736 13.6342 14.9824 -20.1245 -5.00315 13.3873 -63.783 17.5234 4.62965 -1.29367 -1.04123 -13.1473 -10.3985 -15.0888 -9.16081 14.4036 -1.11451 -4.33109 66.6243 17.6768 3.9153 0.804911 -1.19881 8.05954 7.8476 -10.8142 -4.97068 -3.48254 10.6554 10.3741 0.0431717 -9.50033 0.519492 -4.32357e-015 -3.62854e-006 -6.00309e-008 -1.94378 -1.50115 6.21742 -3.87628 7.94194 -14.3395 -0.00353243 -2.7345 -0.148266 2.13443e-007 -1.28066e-006 1.4941e-006 3.75532 -5.73498 -16.2995 
-0.0405296 42.4724 0.423189 3.0505 0.948473 -5.52773 -3.54707 -3.73992 -3.91546 0.810277 2.37131 -6.59967 -2.21714e-005 2.98821e-006 7.18271e-006 -6.43181 14.3877 15.1664 -20.0053 -4.97487 13.3976 -64.041 17.372 5.36551 -1.33087 -1.02725 -13.5406 -10.4031 -15.0875 -9.20767 14.2818 -1.10528 -4.33345 66.9405 17.7964 3.2082 0.851567 -1.18581 8.53937 7.85504 -10.8139 -4.89699 -3.48254 10.6554 10.3741 0.0431721 -9.50034 0.519491 -1.50828e-014 -2.56132e-006 -3.33505e-007 -1.94378 -1.50115 6.21742 -3.87628 7.94194 -14.3395 -0.00353243 -2.7345 -0.148266 2.13443e-007 -1.28066e-006 1.4941e-006 3.75532 -5.73497 -16.2995 
-0.0405296 42.4724 0.423189 3.0505 0.948473 -5.52773 -3.55609 -3.82775 -3.91342 0.74584 1.81043 -6.589 -2.31319e-005 8.00413e-006 6.5342e-006 -6.62452 15.0853 15.3486 -19.8877 -4.94697 13.4078 -64.2822 17.2298 6.04295 -1.36507 -1.01412 -13.9034 -10.4073 -15.0862 -9.2509 14.1617 -1.09619 -4.33575 67.2417 17.9044 2.55505 0.894542 -1.17348 8.982 7.8619 -10.8136 -4.82902 -3.48254 10.6554 10.3741 0.0431718 -9.50034 0.519491 -2.13443e-007 -1.4941e-006 6.80351e-007 -1.94378 -1.50115 6.21742 -3.87628 7.94194 -14.3395 -0.00353243 -2.7345 -0.148266 2.13443e-007 -1.28066e-006 1.4941e-006 3.75533 -5.73497 -16.2995 
-0.0405296 42.4724 0.423189 3.05049 0.948474 -5.52772 -3.56389 -3.90377 -3.91167 0.690149 1.32496 -6.58027 -2.02504e-005 -2.98821e-006 6.32659e-006 -6.77222 15.6826 15.4952 -19.7749 -4.92017 13.4175 -64.4989 17.105 6.62824 -1.39461 -1.00259 -14.2174 -10.411 -15.0852 -9.2883 14.0465 -1.08746 -4.33795 67.5151 17.996 1.98903 0.931628 -1.16253 9.36508 7.86784 -10.8134 -4.77016 -3.48254 10.6554 10.3741 0.0431852 -9.50033 0.519492 1.06722e-007 0 -3.40175e-007 -1.94379 -1.50115 6.21742 -3.87628 7.94195 -14.3395 -0.00352876 -2.7345 -0.148256 6.4033e-007 -1.70755e-006 -4.53567e-007 3.75533 -5.73498 -16.2995 
